<svg width="32" height="32" viewBox="0 0 32 32" fill="none" xmlns="http://www.w3.org/2000/svg" class="icon"><path d="M31.9375 23C31.9375 25.75 29.25 28 26 28C22.6875 28 20 25.75 20 23C20 20.25 22.6875 18.0625 26 18.0625C26.6875 18.0625 27.3125 18.1875 28 18.375V9.3125L12 14L11.9375 27.0625C11.9375 29.8125 9.3125 32 5.9375 32C2.5625 32 0 29.8125 0 27C0 24.25 2.625 22.0625 5.9375 22.0625C6.625 22.0625 7.3125 22.1875 7.9375 22.375V7.9375C7.9375 7.125 8.5625 6.25 9.3125 6L29.25 0.125C29.5 0.0625 29.8125 0 30 0C31.0625 0 31.9375 0.9375 32 2L31.9375 23Z" fill="#F9A75B"></path></svg>