<svg width="19" height="17" viewBox="0 0 19 17" fill="none" xmlns="http://www.w3.org/2000/svg" class="icon"><path d="M10 0.375C5.00781 0.375 1 3.67969 1 7.6875C1 9.44531 1.73828 11.0273 3.00391 12.293C2.54688 14.0859 1.07031 15.6328 1.07031 15.668C1 15.7383 0.964844 15.8789 1 15.9844C1.07031 16.0898 1.14062 16.125 1.28125 16.125C3.60156 16.125 5.35938 15.0352 6.20312 14.332C7.36328 14.7539 8.62891 15 10 15C14.957 15 19 11.7305 19 7.6875C19 3.67969 14.957 0.375 10 0.375ZM6.87109 8.8125C6.73047 9.51562 6.13281 9.9375 5.25391 9.9375C5.11328 9.9375 4.97266 9.9375 4.83203 9.90234C4.55078 9.86719 4.23438 9.76172 3.98828 9.69141C3.70703 9.58594 3.49609 9.23438 3.60156 8.95312C3.70703 8.63672 3.98828 8.46094 4.26953 8.56641C4.51562 8.67188 4.76172 8.77734 5.00781 8.8125C5.39453 8.88281 5.74609 8.77734 5.74609 8.63672C5.78125 8.42578 5.35938 8.35547 4.90234 8.21484C4.48047 8.07422 3.32031 7.75781 3.53125 6.59766C3.67188 5.75391 4.48047 5.33203 5.57031 5.47266C5.78125 5.50781 6.02734 5.57812 6.23828 5.64844C6.51953 5.75391 6.69531 6.07031 6.58984 6.38672C6.48438 6.66797 6.16797 6.84375 5.85156 6.73828C5.71094 6.66797 5.53516 6.63281 5.39453 6.59766C5.00781 6.52734 4.65625 6.63281 4.65625 6.77344C4.62109 6.98438 4.97266 7.05469 5.35938 7.16016C5.95703 7.33594 7.08203 7.65234 6.87109 8.8125ZM12.25 9.375C12.25 9.69141 11.9688 9.9375 11.6875 9.9375C11.3711 9.9375 11.125 9.69141 11.125 9.375V7.6875L10.4219 8.60156C10.2109 8.88281 9.75391 8.88281 9.54297 8.60156L8.875 7.6875V9.375C8.875 9.69141 8.59375 9.9375 8.3125 9.9375C7.99609 9.9375 7.75 9.69141 7.75 9.375V6C7.75 5.78906 7.89062 5.54297 8.10156 5.47266C8.34766 5.40234 8.59375 5.47266 8.73438 5.68359L10 7.33594L11.2305 5.68359C11.3711 5.47266 11.6172 5.40234 11.8633 5.47266C12.0742 5.54297 12.25 5.78906 12.25 6V9.375ZM16.4336 8.8125C16.293 9.51562 15.6953 9.9375 14.8164 9.9375C14.6758 9.9375 14.5352 9.9375 14.3945 9.90234C14.1133 9.86719 13.7969 9.76172 13.5508 9.69141C13.2695 9.58594 13.0586 9.23438 13.1641 8.95312C13.2695 8.63672 13.5508 8.46094 13.832 8.56641C14.0781 8.67188 14.3242 8.77734 14.5703 8.8125C14.957 8.88281 15.3086 8.77734 15.3086 8.63672C15.3438 8.42578 14.9219 8.35547 14.4648 8.21484C14.043 8.07422 12.8828 7.75781 13.0938 6.59766C13.2344 5.75391 14.043 5.33203 15.1328 5.47266C15.3438 5.50781 15.5898 5.57812 15.8008 5.64844C16.082 5.75391 16.2578 6.07031 16.1523 6.38672C16.0469 6.66797 15.7305 6.84375 15.4141 6.73828C15.2734 6.66797 15.0977 6.63281 14.957 6.59766C14.5703 6.52734 14.2188 6.63281 14.2188 6.77344C14.1836 6.98438 14.5352 7.05469 14.9219 7.16016C15.5195 7.33594 16.6445 7.65234 16.4336 8.8125Z" fill="#3873B8"></path></svg>